<svg width="96" height="24" viewBox="0 0 96 24" fill="none" xmlns="http://www.w3.org/2000/svg">
<path d="M13.6161 12.0398C15.2128 11.5378 16.255 10.1191 16.255 8.35111C16.255 5.51363 14.0374 3.6147 10.0679 3.6147H0V21.1416H10.1566C14.4588 21.1416 17.0312 19.1336 17.0312 15.9032C17.0312 14.0916 15.7006 12.5855 13.6161 12.0398ZM4.9009 7.41256H9.35828C10.4893 7.41256 11.1545 7.89275 11.1545 8.96227C11.1545 9.90082 10.4893 10.4683 9.35828 10.4683H4.9009V7.41256ZM9.8905 17.3874H4.9009V14.0261H9.86833C11.1545 14.0261 11.8642 14.7464 11.8642 15.6849C11.8642 16.6235 11.1767 17.3874 9.8905 17.3874Z" fill="#0C204D"/>
<path d="M23.7505 3.63652H18.6722V21.1635H23.7505V3.63652Z" fill="#0C204D"/>
<path d="M65.4414 3.63652L59.1878 21.1635H64.4435L65.2197 18.697H71.7394L72.5378 21.1635H78.1483L71.8947 3.63652H65.4414ZM66.5724 14.5063L67.0381 13.0221C67.6147 11.2759 68.0804 9.87899 68.4352 8.48208H68.5904C68.9231 9.87899 69.3444 11.2759 69.8988 13.0221L70.3645 14.5063H66.5724Z" fill="#0C204D"/>
<path d="M86.4421 3.63652H79.1019V21.1635H86.4421C92.3631 21.1635 96 17.191 96 12.3891C96 7.56535 92.3631 3.63652 86.4421 3.63652ZM86.3534 16.7108H84.1358V8.06737H86.3534C89.1254 8.06737 90.5447 9.98812 90.5447 12.3891C90.5447 14.7682 89.1254 16.7108 86.3534 16.7108Z" fill="#0C204D"/>
<path d="M47.6341 9.72622C48.5655 8.63488 49.9847 7.89277 51.3818 7.89277C53.0229 7.89277 54.2425 8.52574 55.7283 9.83535L56.061 10.1409L58.6999 6.4522L58.5669 6.29941C56.7706 4.33499 54.1317 3.2 51.3818 3.2C48.2107 3.2 45.2612 5.01163 43.842 6.67046C42.7997 7.91459 42.0235 9.39882 41.203 10.9485C39.7838 13.6332 38.675 15.554 37.0561 16.3834C36.4574 16.689 35.8143 16.8636 35.0381 16.8636C33.7741 16.8636 32.5987 16.4052 31.7117 15.554C30.8247 14.7027 30.3368 13.5896 30.3368 12.3891C30.3368 9.92266 32.4435 7.89277 35.0381 7.89277C36.8344 7.89277 38.2758 8.5694 39.3402 9.94449L39.3846 10.01L41.8018 5.8847C40.0277 4.18221 37.5883 3.2 35.0603 3.2C29.7602 3.2 25.4359 7.32527 25.4359 12.3891C25.4359 17.4529 29.7602 21.5782 35.0603 21.5782C41.1365 21.5782 43.7311 16.6671 45.6161 13.0657C46.3257 11.7343 46.9244 10.5775 47.6341 9.72622Z" fill="#0C204D"/>
<path d="M56.2162 14.288C55.1961 15.8596 53.422 16.9073 51.404 16.9073C51.3819 16.9073 51.3597 16.9073 51.3597 16.9073C51.3375 16.9073 51.3375 16.9073 51.3153 16.9073C50.4283 16.9073 49.5856 16.689 48.8094 16.2743C48.122 15.925 47.501 15.423 47.0132 14.8337L44.6182 18.9153C46.3922 20.6178 48.7873 21.6 51.3153 21.6C54.1539 21.6 56.8372 20.3995 58.6334 18.2823L59.2987 17.5621L56.2162 14.288Z" fill="#0C204D"/>
</svg>
